<?xml version="1.0" encoding="UTF-8"?>
<svg xmlns="http://www.w3.org/2000/svg" xmlns:xlink="http://www.w3.org/1999/xlink" width="50pt" height="50pt" viewBox="0 0 50 50" version="1.1">
<g id="surface1">
<path style=" stroke:none;fill-rule:nonzero;fill:#F65E5B;fill-opacity:1;" d="M 19.839844 0.15625 C 6.746094 1.460938 1.984375 11.445313 1.984375 20.832031 C 1.984375 25.066406 3.253906 29.144531 5.640625 32.613281 C 7.800781 35.753906 8.929688 39.277344 8.929688 42.84375 L 8.929688 49.601563 L 32.738281 49.601563 L 32.738281 44.425781 L 34.722656 44.550781 C 37.035156 44.761719 39.25 44.027344 40.953125 42.472656 C 42.667969 40.910156 43.652344 38.652344 43.652344 36.304688 L 43.652344 31.558594 L 47.121094 29.824219 C 47.789063 29.457031 48.253906 28.871094 48.457031 28.148438 C 48.652344 27.433594 48.554688 26.65625 48.175781 25.980469 L 43.621094 18.136719 C 42.269531 7.28125 36.121094 1.128906 25.792969 0.15625 L 25.792969 17.453125 C 28.699219 18.636719 30.753906 21.476563 30.753906 24.800781 C 30.753906 26.574219 30.15625 28.191406 29.171875 29.515625 L 34.320313 33.078125 C 34.734375 32.859375 35.214844 32.738281 35.714844 32.738281 C 37.355469 32.738281 38.691406 34.074219 38.691406 35.714844 C 38.691406 37.355469 37.355469 38.691406 35.714844 38.691406 C 34.074219 38.691406 32.738281 37.355469 32.738281 35.714844 C 32.738281 35.308594 32.808594 34.917969 32.957031 34.566406 L 27.777344 30.972656 C 26.417969 32.066406 24.699219 32.738281 22.816406 32.738281 C 18.441406 32.738281 14.882813 29.175781 14.882813 24.800781 C 14.882813 21.476563 16.933594 18.636719 19.839844 17.453125 Z M 22.816406 18.847656 C 19.535156 18.847656 16.863281 21.519531 16.863281 24.800781 C 16.863281 28.082031 19.535156 30.753906 22.816406 30.753906 C 26.101563 30.753906 28.769531 28.082031 28.769531 24.800781 C 28.769531 21.519531 26.101563 18.847656 22.816406 18.847656 Z M 22.816406 20.832031 C 25.007813 20.832031 26.785156 22.613281 26.785156 24.800781 C 26.785156 26.992188 25.007813 28.769531 22.816406 28.769531 C 20.628906 28.769531 18.847656 26.992188 18.847656 24.800781 C 18.847656 22.613281 20.628906 20.832031 22.816406 20.832031 Z M 22.816406 22.816406 C 21.722656 22.816406 20.832031 23.703125 20.832031 24.800781 C 20.832031 25.898438 21.722656 26.785156 22.816406 26.785156 C 23.914063 26.785156 24.800781 25.898438 24.800781 24.800781 C 24.800781 23.703125 23.914063 22.816406 22.816406 22.816406 Z "/>
</g>
</svg>
