<?xml version="1.0" encoding="UTF-8"?>
<svg xmlns="http://www.w3.org/2000/svg" xmlns:xlink="http://www.w3.org/1999/xlink" width="52pt" height="52pt" viewBox="0 0 52 52" version="1.1">
<g id="surface1">
<path style=" stroke:none;fill-rule:nonzero;fill:#2BC24F;fill-opacity:1;" d="M 5.910156 0 C 2.648438 0 0 2.648438 0 5.910156 L 0 41.363281 C 0 44.625 2.648438 47.273438 5.910156 47.273438 L 24.5 47.273438 L 25.605469 43.332031 L 5.910156 43.332031 C 4.824219 43.332031 3.9375 42.449219 3.9375 41.363281 L 3.9375 7.878906 L 43.332031 7.878906 L 43.332031 24.5 C 44.148438 24.097656 45.042969 23.882813 45.980469 23.882813 C 46.417969 23.882813 46.847656 23.914063 47.273438 24.003906 L 47.273438 5.910156 C 47.273438 2.648438 44.625 0 41.363281 0 Z M 9.847656 15.757813 L 9.847656 19.695313 L 13.789063 19.695313 L 13.789063 15.757813 Z M 17.726563 15.757813 L 17.726563 19.695313 L 37.425781 19.695313 L 37.425781 15.757813 Z M 9.847656 23.636719 L 9.847656 27.574219 L 13.789063 27.574219 L 13.789063 23.636719 Z M 17.726563 23.636719 L 17.726563 27.574219 L 37.425781 27.574219 L 37.425781 23.636719 Z M 45.855469 27.761719 C 45.320313 27.761719 44.789063 27.96875 44.378906 28.375 L 41.980469 30.777344 L 47.949219 36.808594 L 50.351563 34.347656 C 51.164063 33.53125 51.171875 32.222656 50.351563 31.390625 L 47.394531 28.375 C 46.980469 27.960938 46.394531 27.761719 45.855469 27.761719 Z M 9.847656 31.515625 L 9.847656 35.453125 L 13.789063 35.453125 L 13.789063 31.515625 Z M 17.726563 31.515625 L 17.726563 35.453125 L 31.699219 35.453125 L 35.640625 31.515625 Z M 39.949219 32.683594 L 30.222656 42.347656 C 30.089844 42.457031 29.96875 42.601563 29.914063 42.78125 L 27.820313 49.917969 C 27.730469 50.226563 27.84375 50.550781 28.066406 50.78125 C 28.238281 50.949219 28.453125 51.027344 28.683594 51.027344 C 28.769531 51.027344 28.851563 50.988281 28.929688 50.964844 L 36.007813 48.875 C 36.179688 48.828125 36.332031 48.75 36.4375 48.625 L 46.164063 38.964844 Z M 31.515625 43.640625 L 34.53125 44.257813 L 35.148438 47.335938 L 31.144531 48.503906 L 30.34375 47.640625 Z "/>
</g>
</svg>
