<svg xmlns="http://www.w3.org/2000/svg" xmlns:xlink="http://www.w3.org/1999/xlink" width="268" height="201" fill="none" viewBox="0 0 268 201">
  <path fill="#ECBA82" d="M61.03 129.1V75.16a7.8 7.8 0 0 1 3.85-6.69l46.11-27a7.55 7.55 0 0 1 7.69 0l46.1 26.92a7.83 7.83 0 0 1 3.85 6.77v53.94c0 2.8-1.46 5.38-3.84 6.78l-30.82 18 .08-.02-.08 10.74.08 11.68L111.33 163a7.4 7.4 0 0 1-.34-.2l-46.11-26.92a7.83 7.83 0 0 1-3.85-6.78Z"/>
  <path fill="#006494" d="M105.12 95.29h-47.9v38.21h47.9V95.3Z"/>
  <path fill="url(#a)" d="M48.42 83.82h66.78v58.19H48.42z" opacity=".1"/>
  <path fill="#fff" d="M110.58 89.89h-47.9v38.2h47.9V89.9Z"/>
  <path fill="#0F2B46" d="M93.04 114.71H76.67l-3.53 7.91H69.9l13.44-29.6h3.06l13.44 29.6h-3.28l-3.53-7.9Zm-1.13-2.53-7.06-15.9-7.07 15.9h14.13Z"/>
  <path stroke="#2292A4" stroke-miterlimit="10" d="M99.7 69.13V49.16l-17.18-9.99-17.17 9.99v19.97l17.17 9.99 17.18-10Z"/>
  <path fill="#006494" d="M181.95 75.5h-47.9v38.22h47.9V75.51Z"/>
  <path fill="url(#b)" d="M125.25 64.04h66.78v58.19h-66.78z" opacity=".1"/>
  <path fill="#fff" d="M187.4 70.1h-47.89v38.22h47.9V70.1Z"/>
  <path fill="#0F2B46" fill-rule="evenodd" d="m161.89 76.27 3.03-.3.25 3.39a82.01 82.01 0 0 0 6.63-2.05l.2 3.18s-2.32.97-6.6 2.05l.4 5.34c2.32-.13 4.2.04 5.71.4.3-1.33.3-2.2.3-2.2l2.85.89c-.12.8-.28 1.56-.47 2.28 3.64 1.96 3.59 5.26 3.59 5.26.1 1.75-.93 2.97-2.53 4.09-.51.35-1.01.1-.48-.53 2.64-3.13.3-5.41-1.35-6.5-3.6 8.92-12.42 10.89-12.42 10.89-9.75 2.43-10.27-4-10.27-4-.48-7.74 10.15-9.96 10.15-9.96.65-.12 1.27-.22 1.87-.3l-.36-4.96a95.61 95.61 0 0 1-8.44 1.4l-.25-2.86s3.66-.54 8.47-1.67l-.28-3.84Zm-8.08 20.95c-.41-3.27 3.81-5.63 9.12-6.47l.55 7.64a21 21 0 0 1-2.11.97s-6.95 2.54-7.56-2.14Zm12.17-6.78.44 6a14.86 14.86 0 0 0 4.34-5.81c-1.57-.2-3.2-.26-4.78-.19Z" clip-rule="evenodd"/>
  <path stroke="#0F2B46" stroke-miterlimit="10" d="M267 134.75v-36.5L235.5 80 204 98.25v36.5L235.5 153l31.5-18.25Z"/>
  <path fill="#037171" d="M70.8 152.51H46l-12.43 21.65L46 195.82h24.8l12.42-21.66-12.43-21.65Zm-12.44 30.34a8.57 8.57 0 0 1-7.96-5.36 8.76 8.76 0 0 1 1.87-9.47 8.6 8.6 0 0 1 14.71 6.14c0 2.3-.9 4.5-2.51 6.13a8.58 8.58 0 0 1-6.07 2.56h-.04Z"/>
  <defs>
    <pattern id="a" width="1" height="1" patternContentUnits="objectBoundingBox">
      <use xlink:href="#c" transform="scale(.00478 .00552)"/>
    </pattern>
    <pattern id="b" width="1" height="1" patternContentUnits="objectBoundingBox">
      <use xlink:href="#c" transform="scale(.00478 .00552)"/>
    </pattern>
  </defs>
</svg>