<svg xmlns="http://www.w3.org/2000/svg" width="268.831" height="82.216" viewBox="0 0 268.831 82.216">
  <g id="Logo_Ortho-korrect" transform="translate(-31.452 -233.933)">
    <path id="Tracé_158" data-name="Tracé 158" d="M71.871,235.889c4.517-1.376,9.242-2.387,13.9-1.772s9.3,3.046,11.764,7.278c2.273,3.881,2.467,8.669,2.744,13.209.332,5.55.9,11.086,1.677,16.577.873,6.165,2.009,12.491.679,18.568-1.275,5.755-4.7,10.763-8.813,14.76-10.766,10.427-26.867,14.292-40.835,9.782a31.558,31.558,0,0,1-6.706-2.987c-9.339-5.609-14.841-17.119-14.826-28.482s5.071-22.332,12.637-30.386,17.473-13.384,27.783-16.548" transform="translate(0)" fill="#4b3c99" style="isolation: isolate"/>
    <text id="Ortho-korrect." transform="translate(120.283 286.154)" fill="#4b3c99" font-size="31" font-family="MyriadHebrew-Bold, Myriad Hebrew" font-weight="700" style="isolation: isolate"><tspan x="0" y="0">O</tspan><tspan y="0" font-size="27">rtho-korrect</tspan><tspan y="0">.</tspan></text>
    <g id="surface1" transform="translate(46.428 258.322)">
      <path id="Tracé_159" data-name="Tracé 159" d="M61.282,271.638a6.477,6.477,0,0,0-6.677,6.229V298.11a6.477,6.477,0,0,0,6.677,6.228h8.346v-3.113H61.282a3.233,3.233,0,0,1-3.34-3.116V277.867a3.235,3.235,0,0,1,3.34-3.116h7.147c1.205.287,1.2,1.636,1.2,3.017v3.212A1.5,1.5,0,0,0,70.045,282a6.671,6.671,0,0,1,6.26-4.135h.106c-.295-.275-.6-.553-.887-.827-.41-.383-.854-.741-1.251-1.118-2.857-2.721-4.539-4.283-6.313-4.283Zm16.691,7.785a6.477,6.477,0,0,0-6.677,6.229V305.9a6.476,6.476,0,0,0,6.677,6.229H91.328a6.477,6.477,0,0,0,6.677-6.229V291.881c0-1.655-1.622-3.224-4.539-5.889-.4-.371-.841-.785-1.251-1.168s-.854-.741-1.252-1.118c-2.856-2.721-4.538-4.283-6.313-4.283Zm0,3.116h7.148c1.208.285,1.2,1.637,1.2,3.018v3.211a1.619,1.619,0,0,0,1.668,1.556h3.337c1.666,0,3.34.006,3.34,1.556V305.9a3.231,3.231,0,0,1-3.34,3.116H77.974a3.23,3.23,0,0,1-3.336-3.116V285.652A3.23,3.23,0,0,1,77.974,282.539ZM61.282,284.1v3.113h8.346V284.1Zm0,4.672v3.113h8.346v-3.113Zm16.691,3.113V295H91.328v-3.116Zm-16.691,1.556v3.117h8.346v-3.117Zm16.691,3.117v3.113H87.991v-3.113Zm0,4.672v3.113H91.328v-3.113Z" transform="translate(-54.605 -271.638)" fill="#fff"/>
    </g>
  </g>
</svg>
