<?xml version="1.0" encoding="UTF-8"?>
<svg xmlns="http://www.w3.org/2000/svg" xmlns:xlink="http://www.w3.org/1999/xlink" width="64pt" height="64pt" viewBox="0 0 64 64" version="1.1">
<g id="surface1">
<path style=" stroke:none;fill-rule:nonzero;fill:#4B3C99;fill-opacity:1;" d="M 32 6 C 17.664063 6 6 17.664063 6 32 C 6 46.335938 17.664063 58 32 58 C 46.335938 58 58 46.335938 58 32 C 58 17.664063 46.335938 6 32 6 Z M 32 10 C 44.171875 10 54 19.828125 54 32 C 54 44.171875 44.171875 54 32 54 C 19.828125 54 10 44.171875 10 32 C 10 19.828125 19.828125 10 32 10 Z M 32 16 C 26.5 16 22 20.5 22 26 C 22 29.03125 23.414063 31.726563 25.5625 33.5625 C 21.0625 35.898438 18 40.601563 18 46 L 22 46 C 22 40.453125 26.453125 36 32 36 C 37.546875 36 42 40.453125 42 46 L 46 46 C 46 40.601563 42.9375 35.898438 38.4375 33.5625 C 40.585938 31.726563 42 29.03125 42 26 C 42 20.5 37.5 16 32 16 Z M 32 20 C 35.335938 20 38 22.664063 38 26 C 38 29.335938 35.335938 32 32 32 C 28.664063 32 26 29.335938 26 26 C 26 22.664063 28.664063 20 32 20 Z "/>
</g>
</svg>
