<?xml version="1.0" encoding="UTF-8"?>
<svg xmlns="http://www.w3.org/2000/svg" xmlns:xlink="http://www.w3.org/1999/xlink" width="52pt" height="52pt" viewBox="0 0 52 52" version="1.1">
<g id="surface1">
<path style=" stroke:none;fill-rule:nonzero;fill:#9E3BBC;fill-opacity:1;" d="M 25.605469 0 C 20.167969 0 15.757813 4.410156 15.757813 9.847656 C 15.757813 15.289063 20.167969 19.695313 25.605469 19.695313 C 31.046875 19.695313 35.453125 15.289063 35.453125 9.847656 C 35.453125 4.410156 31.046875 0 25.605469 0 Z M 25.605469 21.667969 C 21.511719 21.667969 18.441406 23.191406 16.066406 25.605469 L 12.003906 25.605469 C 9.773438 25.605469 7.894531 27.574219 8.1875 29.914063 L 8.0625 29.914063 L 9.234375 42.964844 L 8.496094 43.703125 C 7.710938 44.488281 7.710938 45.6875 8.496094 46.472656 L 12.617188 50.597656 C 13.402344 51.382813 14.601563 51.382813 15.386719 50.597656 L 16.742188 49.242188 L 34.46875 49.242188 L 35.824219 50.597656 C 36.609375 51.382813 37.808594 51.382813 38.59375 50.597656 L 42.71875 46.472656 C 43.503906 45.6875 43.503906 44.488281 42.71875 43.703125 L 41.980469 42.964844 L 43.148438 29.914063 L 43.148438 29.730469 C 43.148438 27.675781 41.488281 25.605469 39.210938 25.605469 L 35.148438 25.605469 C 32.769531 23.191406 29.699219 21.667969 25.605469 21.667969 Z M 12.003906 29.546875 L 39.210938 29.546875 C 39.292969 29.546875 39.210938 29.421875 39.210938 29.730469 L 38.222656 41.242188 C 37.363281 41.324219 36.515625 41.65625 35.824219 42.347656 L 34.46875 43.703125 C 34.007813 44.164063 33.738281 44.742188 33.546875 45.304688 L 17.664063 45.304688 C 17.472656 44.742188 17.203125 44.164063 16.742188 43.703125 L 15.386719 42.347656 C 14.695313 41.65625 13.847656 41.324219 12.988281 41.242188 Z M 35.453125 31.515625 C 34.371094 31.515625 33.484375 32.398438 33.484375 33.484375 C 33.484375 34.570313 34.371094 35.453125 35.453125 35.453125 C 36.539063 35.453125 37.425781 34.570313 37.425781 33.484375 C 37.425781 32.398438 36.539063 31.515625 35.453125 31.515625 Z "/>
</g>
</svg>
