<?xml version="1.0" encoding="UTF-8"?>
<svg xmlns="http://www.w3.org/2000/svg" xmlns:xlink="http://www.w3.org/1999/xlink" width="52pt" height="52pt" viewBox="0 0 52 52" version="1.1">
<g id="surface1">
<path style=" stroke:none;fill-rule:nonzero;fill:#4B3C99;fill-opacity:1;" d="M 3.9375 0 C 2.910156 0 1.855469 0.363281 1.109375 1.109375 C 0.363281 1.855469 0 2.910156 0 3.9375 L 0 31.515625 C 0 32.546875 0.363281 33.601563 1.109375 34.347656 C 1.855469 35.09375 2.910156 35.453125 3.9375 35.453125 L 15.757813 35.453125 L 15.757813 47.273438 C 15.757813 49.441406 17.527344 51.210938 19.695313 51.210938 L 47.273438 51.210938 C 49.441406 51.210938 51.210938 49.441406 51.210938 47.273438 L 51.210938 19.695313 C 51.210938 17.527344 49.441406 15.757813 47.273438 15.757813 L 35.453125 15.757813 L 35.453125 3.9375 C 35.453125 2.910156 35.09375 1.855469 34.347656 1.109375 C 33.601563 0.363281 32.546875 0 31.515625 0 Z M 47.273438 0 L 41.363281 5.910156 L 47.273438 11.816406 Z M 3.9375 3.9375 L 31.515625 3.9375 L 31.515625 17.726563 L 17.726563 31.515625 L 3.9375 31.515625 Z M 15.757813 7.878906 L 15.757813 9.847656 L 7.878906 9.847656 L 7.878906 13.789063 L 21.113281 13.789063 C 20.175781 15.917969 18.566406 17.742188 16.867188 19.265625 C 16.765625 19.195313 16.65625 19.152344 16.558594 19.082031 C 14.804688 17.875 13.789063 16.449219 13.789063 15.757813 L 9.847656 15.757813 C 9.847656 18.457031 11.671875 20.34375 13.601563 21.789063 C 11.257813 23.335938 9.292969 24.191406 9.292969 24.191406 L 10.773438 27.820313 C 10.773438 27.820313 13.972656 26.652344 17.417969 24.128906 C 18.511719 24.660156 19.511719 25.050781 20.25 25.296875 L 21.480469 21.542969 C 21.320313 21.488281 20.972656 21.328125 20.742188 21.234375 C 22.667969 19.25 24.390625 16.765625 25.296875 13.789063 L 27.574219 13.789063 L 27.574219 9.847656 L 19.695313 9.847656 L 19.695313 7.878906 Z M 32.128906 24.804688 L 36.808594 24.804688 L 43.332031 43.332031 L 39.023438 43.332031 L 37.609375 39.023438 L 30.898438 39.023438 L 29.730469 43.332031 L 25.605469 43.332031 Z M 34.46875 27.761719 C 34.269531 28.746094 33.507813 31.492188 32.128906 35.824219 L 36.808594 35.824219 C 35.625 31.882813 34.855469 29.570313 34.65625 29.175781 C 34.453125 28.390625 34.46875 27.960938 34.46875 27.761719 Z M 3.9375 39.394531 L 3.9375 51.210938 L 9.847656 45.304688 Z "/>
</g>
</svg>
